PathFileType	4	(X/Y/Z)	 s05c0102.trc
DataRate	CameraRate	NumFrames	NumMarkers	Units	OrigDataRate	OrigDataStartFrame	OrigNumFrames
200	200	5	50	mm	200	1501	2000
Frame#	Time	racr			lacr			c7			jug			rlel			rdr			llel			ldr			s2			lic			ric			lasi			rasi			rpsi			lpsi			rgt			lgt			rth1			rth2			rth3			rth4			rlfc			rmfc			rsh1			rsh2			rsh3			rsh4			rlmal			rmmal			rcal			rtoe			rmt5			lth1			lth2			lth4			lth3			llfc			lmfc			lsh1			lsh2			lsh3			lsh4			llmal			lmmal			lcal			ltoe			lmt5			SBIKE			LBIKE			RBIKE			
		X1	Y1	Z1	X2	Y2	Z2	X3	Y3	Z3	X4	Y4	Z4	X5	Y5	Z5	X6	Y6	Z6	X7	Y7	Z7	X8	Y8	Z8	X9	Y9	Z9	X10	Y10	Z10	X11	Y11	Z11	X12	Y12	Z12	X13	Y13	Z13	X14	Y14	Z14	X15	Y15	Z15	X16	Y16	Z16	X17	Y17	Z17	X18	Y18	Z18	X19	Y19	Z19	X20	Y20	Z20	X21	Y21	Z21	X22	Y22	Z22	X23	Y23	Z23	X24	Y24	Z24	X25	Y25	Z25	X26	Y26	Z26	X27	Y27	Z27	X28	Y28	Z28	X29	Y29	Z29	X30	Y30	Z30	X31	Y31	Z31	X32	Y32	Z32	X33	Y33	Z33	X34	Y34	Z34	X35	Y35	Z35	X36	Y36	Z36	X37	Y37	Z37	X38	Y38	Z38	X39	Y39	Z39	X40	Y40	Z40	X41	Y41	Z41	X42	Y42	Z42	X43	Y43	Z43	X44	Y44	Z44	X45	Y45	Z45	X46	Y46	Z46	X47	Y47	Z47	X48	Y48	Z48	X49	Y49	Z49	X50	Y50	Z50	
1501	7.5050	486.217354	1287.199765	-183.810239	469.156693	1272.007795	-433.024867	460.435952	1344.679320	-314.744904	399.489268	1198.470560	-293.747080	517.361173	1083.940789	2.762458	695.977107	930.706980	-73.288222	475.287251	1029.262838	-586.676571	687.487857	927.140864	-465.518177	-105.738589	1180.558043	-244.547355	17.602361	1194.673011	-400.299467	50.066314	1204.822097	-115.649571	70.526308	1145.702563	-365.565401	91.129180	1141.162761	-146.016191	-68.932243	1229.112402	-207.417152	-76.170261	1232.033558	-294.168688	-0.734382	1060.685309	-90.499201	-22.566605	1108.644614	-428.748745	71.108027	956.885167	-80.111475	132.665778	892.004525	-79.147989	151.925330	806.265081	-88.572038	164.300396	909.604487	-88.614493	233.855667	682.351065	-116.278131	209.782222	673.370568	-221.932725	200.365319	581.143206	-82.820378	217.538584	495.102715	-93.813073	193.433512	412.461173	-94.431020	244.093185	496.211593	-122.178205	193.365821	277.118274	-103.265660	200.694612	302.642997	-182.396287	121.688265	247.143499	-144.404507	417.307241	209.850585	-150.277169	316.755639	192.336956	-82.681952	100.064974	1044.322920	-441.737602	186.025213	1041.109687	-436.174476	196.996377	1071.723957	-416.069281	262.008592	991.812508	-440.204974	383.736910	905.985470	-408.548286	368.122592	884.576308	-298.837473	294.102095	825.580859	-434.382348	249.184634	751.052712	-427.166064	171.310651	708.169847	-429.508979	272.469167	728.588597	-406.888190	90.179721	618.114376	-429.520528	126.027415	622.442174	-353.754701	19.966506	629.447155	-386.899688	210.349132	403.465951	-392.778994	118.074831	465.014484	-454.454111	-214.484195	914.397136	-267.099238	-43.486029	85.391556	-474.959663	-51.752199	80.164254	-77.454014	
1502	7.5100	486.851022	1286.792542	-184.937008	468.563931	1272.494145	-434.097969	460.542359	1344.748952	-315.660438	399.428850	1198.588161	-294.814090	518.215375	1084.009352	2.216238	696.348098	930.026693	-73.402668	475.267393	1029.643187	-586.432310	687.454599	927.809775	-465.332916	-105.141317	1181.348255	-242.936929	16.718195	1196.638120	-398.915297	51.930360	1204.445546	-114.697030	70.034735	1147.515393	-364.883223	92.263141	1140.463792	-145.828399	-67.768314	1229.518999	-205.027282	-76.017690	1233.162688	-291.636429	-0.262595	1060.235208	-90.167953	-22.949020	1111.548970	-427.776555	68.864566	955.374828	-79.101111	129.038367	889.318325	-77.380831	146.441067	803.090624	-86.695589	161.128652	906.105884	-86.538379	226.220347	677.713532	-114.550513	201.955114	668.604807	-220.174109	193.080408	576.816217	-81.305043	210.089734	490.824200	-92.327386	186.006946	408.223533	-92.843283	236.713063	491.971199	-120.560747	186.474200	272.241538	-102.369258	194.107449	299.110530	-181.898534	114.659275	243.537139	-143.876254	409.610835	201.875701	-150.196398	308.929189	185.446764	-82.558634	100.193497	1048.723863	-441.119913	186.160204	1046.954833	-435.235856	196.417670	1077.401483	-414.790927	262.932724	998.764065	-439.387491	387.336713	915.392464	-408.268305	371.649838	893.264845	-298.643749	297.803839	834.342130	-433.741501	253.399849	759.580550	-426.546536	175.813801	716.310333	-428.743877	276.997722	737.009593	-406.502218	95.161472	624.700067	-428.731889	130.755245	629.473484	-352.489339	24.451763	634.562773	-386.227315	219.027664	412.483537	-392.520433	125.831389	472.291443	-454.016334	-214.419405	914.426547	-266.909106	-43.495128	85.371699	-474.858300	-51.740093	80.173626	-77.437605	
1503	7.5150	487.356638	1286.302744	-186.114489	467.930102	1272.991057	-435.165304	460.585147	1344.743250	-316.524756	399.291350	1198.626708	-295.898679	518.867783	1083.934657	1.747413	696.702460	929.500560	-73.361251	475.185263	1030.094086	-586.250768	687.339017	928.562458	-465.234648	-104.721636	1181.957169	-241.908930	15.601490	1198.233813	-397.265260	53.451159	1203.050515	-113.583121	69.291128	1149.295838	-364.009882	93.356911	1139.738483	-145.655679	-66.786579	1229.829727	-202.727926	-76.051695	1234.218291	-289.124249	0.018093	1059.813075	-89.918768	-23.499946	1114.036026	-426.685876	66.774372	954.350219	-77.983259	125.548960	886.920167	-75.638724	141.326415	800.466595	-84.499011	158.027412	903.131356	-85.050949	218.729010	673.575939	-113.004469	194.598887	664.405637	-218.432094	185.619709	573.110570	-80.003141	202.527923	486.973008	-90.817874	178.364167	404.435069	-91.431681	229.279191	488.097968	-119.012829	179.124489	268.090833	-101.738611	187.379102	295.264659	-181.123610	107.144650	240.605761	-143.546319	401.525477	194.439515	-150.065804	300.620477	179.093634	-82.505248	100.086441	1052.678172	-440.403529	186.032248	1052.097672	-434.028352	195.750382	1082.737068	-413.352385	263.550395	1005.421172	-438.374507	389.845290	924.049148	-407.759584	374.772620	901.728935	-298.186524	301.610717	842.788522	-432.942674	257.757575	767.672192	-425.868530	180.494212	723.860279	-428.012587	281.627876	745.251041	-406.128593	100.561182	630.658913	-427.942099	136.305355	635.997998	-351.891392	29.504766	639.196336	-385.767285	228.003447	420.541888	-391.694162	134.040579	478.957771	-453.624576	-214.310891	914.514849	-266.856789	-43.478046	85.447061	-474.816988	-51.740373	80.194830	-77.397880	
1504	7.5200	487.820673	1285.767022	-187.116774	467.268081	1273.445289	-436.365426	460.575263	1344.656433	-317.339762	399.167858	1198.564422	-296.878503	519.298328	1083.825308	1.418648	697.241289	928.578856	-73.395165	474.942546	1030.524608	-586.310073	687.199572	929.459319	-465.198009	-104.429018	1182.423018	-240.518270	14.691405	1200.057622	-395.998143	55.410863	1202.716701	-112.307292	68.429460	1150.969003	-363.174615	94.263700	1139.082370	-145.494083	-65.989439	1230.096022	-200.525343	-78.347897	1235.399948	-285.723174	0.287860	1059.339180	-89.636612	-24.254977	1116.139315	-425.520405	64.898747	953.633971	-76.484933	122.309102	885.138539	-74.046657	136.586810	798.369064	-82.617182	155.187751	900.662082	-83.615625	211.796018	670.037433	-111.397254	187.997570	660.870929	-217.079567	178.172037	569.392217	-78.826235	195.072240	483.709902	-89.708460	170.648158	401.099472	-90.429417	221.923432	484.601566	-117.682722	171.446799	264.492469	-101.263218	180.130525	292.055725	-180.495844	99.309948	238.073297	-143.513224	392.978638	187.580841	-150.044947	291.866454	173.451801	-82.522693	99.755225	1056.259358	-439.435636	185.723705	1057.212088	-433.003227	194.888155	1087.701627	-412.046684	263.673118	1011.358875	-436.660866	392.070093	932.649205	-407.202741	377.522863	910.301425	-297.508289	305.249191	850.942374	-432.181547	262.163518	775.269640	-425.165811	185.316430	730.783489	-427.295598	286.307548	753.058956	-405.658850	106.254035	635.958103	-427.149025	141.961778	641.741887	-351.288357	34.918660	643.175050	-385.279824	237.520134	428.254319	-391.437851	142.575104	484.965026	-453.284652	-214.073555	914.680777	-267.201561	-43.476241	85.598650	-474.877491	-51.727963	80.203006	-77.370870	
1505	7.5250	488.192883	1284.975730	-188.117214	466.711360	1273.712713	-437.307331	460.488280	1344.448389	-318.099717	399.062035	1198.314219	-297.999237	519.648505	1083.635566	1.235030	697.464106	928.123755	-73.224723	474.642739	1030.772910	-586.542893	687.055965	930.432801	-465.247069	-104.268898	1182.836035	-239.218577	13.475247	1201.628016	-394.609467	56.623530	1202.570214	-112.144894	67.743599	1152.669553	-362.599199	95.007334	1138.416617	-145.342134	-65.316334	1230.348386	-198.429491	-78.314398	1236.298910	-283.649930	0.452910	1058.921062	-89.392279	-25.180429	1117.753700	-424.330004	63.101022	953.106989	-75.588299	119.484129	883.772523	-72.801639	132.274237	796.700436	-81.070422	152.553048	898.663015	-82.244985	205.394353	666.932037	-109.995608	182.344024	658.047201	-216.140763	171.377686	566.682450	-77.987067	187.772762	480.700649	-88.819947	162.917641	398.214401	-89.835629	214.840150	481.429394	-116.618126	163.352723	261.406218	-100.893730	172.757615	289.001098	-180.064013	91.127273	235.934792	-143.488538	384.067706	181.313937	-150.027767	282.689175	168.413791	-82.586240	99.186202	1059.428197	-438.175748	185.139263	1061.702926	-431.925235	193.877209	1092.423265	-411.171834	263.840999	1016.933055	-435.507873	393.959232	941.235809	-406.564674	379.685323	918.704354	-296.725510	308.869280	858.436230	-431.399906	266.633099	782.342862	-424.435887	190.321647	737.097778	-426.572674	290.986272	760.539852	-405.050348	112.304871	640.416416	-426.377349	147.792973	646.717971	-350.744981	40.707288	646.422685	-384.811550	247.345481	435.280273	-391.135250	151.377604	490.410878	-452.990573	-214.092643	914.716484	-267.096426	-43.484691	85.529437	-474.771984	-51.753481	80.210145	-77.367111	
